<?xml version="1.0" encoding="UTF-8"?>
<svg width="178.87" height="188.12" fill-rule="evenodd" viewBox="0 0 56.6376 59.5659" xmlns="http://www.w3.org/2000/svg">
 <path d="m14.3708,15.7826v-4.23348c0,0 .16751-.81634.71996-1.17704s7.18916-4.64513 7.46124-4.83855 .93111-.04836 1.15494-.16919c.16852-.17502.09514-.64008.43296-.88758l6.59251-4.28599c.27252-.22551.81095-.2815 1.05924.00045l6.92921,6.06305c.22046.20274.02726.94065.19971,1.13228 .19365.21564 1.02143.07472 1.2447.21609l6.92898,6.15887c.27331.32043.18411,1.02749.38494,1.25121 .30405.32986 1.04342.10412 1.44418.38573l7.50679,6.83272c.2254.23987.28172.8666.09615,1.15494l-8.82991,18.3587-5.50499,4.15808c-.1067.07865-.42264.02008-.53618.11253-.07416.06631.03355.33805-.07831.425l-3.32593,2.64008 .86032,4.13643c.02098.26972-.06664.53955-.19791.67901l-6.8335,5.38977c-.46887.38046-.9917.33692-1.33019.08695l-7.14743-4.27768c-.4075-.16078-.38292-.49871-.59666-.61405-.25614-.08807-.46797.27488-.70235.13239l-6.99563-4.19702c-.29328-.20218-.16504-.66532-.54864-.82239-.40626-.05801-.46034.30248-.90306,0l-4.77875-2.82015c-.17121-.08392-.38606-.31965-.48121-.57747l-2.3284-6.83036c-.10984-.24582.17873-.575.10176-.79906-.05127-.21328-.483-.38651-.5777-.68675l-2.40368-7.75048c-.12555-.32481.24863-.80848.16852-1.11063-.19399-.40626-.63772-.22192-.83148-.62818l-2.60406-8.33973c-.24212-.52171-.09178-.98104.19791-1.1886l7.69954-4.8123c.32885-.16919.72994-.12084 1.05879,0l4.52351,1.82879c.40155.18524.75508.17738.77011-.09638z" fill="#1a1a1a"/>
 <path d="m36.188 16.03c3.1193 2.8181 3.4453 3.4922-0.21598 0.23797s-4.0337-4.0405 0.21598-0.23797z" fill="#4d4d4d"/>
 <path d="m23.12761,17.6723a.30271,.49183 0 1,0 -.60542,0 .30271,.49183 0 1,0 .60542,0" fill="#808080"/>
 <path d="m40.41661,19.6081a.30271,.49183 0 1,0 -.60542,0 .30271,.49183 0 1,0 .60542,0" fill="#999"/>
 <path d="m45.335 24.247c2.7678 2.5007 3.0571 3.0988-0.19174 0.21115s-3.5793-3.5853 0.19174-0.21115z" fill="#4d4d4d"/>
 <path d="m49.59971,27.7821a.30271,.49183 0 1,0 -.60542,0 .30271,.49183 0 1,0 .60542,0" fill="#808080"/>
 <path d="m40.87071,34.3667a.30271,.49183 0 1,0 -.60542,0 .30271,.49183 0 1,0 .60542,0" fill="#666"/>
 <path d="m37.11 30.983c2.7679 2.5006 3.0572 3.0987-0.19163 0.21115s-3.5793-3.5853 0.19163-0.21115z" fill="#666"/>
 <path d="m31.71281,11.5402a.30271,.49183 0 1,0 -.60542,0 .30271,.49183 0 1,0 .60542,0" fill="#808080"/>
 <path d="m27.619 8.1215c2.7679 2.5006 3.0572 3.0988-0.19163 0.21115s-3.5793-3.5853 0.19163-0.21115z" fill="#333"/>
 <path d="m19.17 14.526c2.7679 2.5007 3.0572 3.0988-0.19163 0.21115s-3.5793-3.5853 0.19163-0.21115z" fill="#333"/>
 <path d="m23.99942,29.4586a.47542,.49183 0 1,0 -.95084,0 .47542,.49183 0 1,0 .95084,0" fill="#808080"/>
 <path d="m15.26911,25.6216a.30271,.49183 0 1,0 -.60542,0 .30271,.49183 0 1,0 .60542,0" fill="#808080"/>
 <path d="m7.36534,22.266a.30271,.36136 0 1,0 -.60542,0 .30271,.36136 0 1,0 .60542,0" fill="#808080"/>
 <path d="m10.49951,32.6228a.30271,.36136 0 1,0 -.60542,0 .30271,.36136 0 1,0 .60542,0" fill="#666"/>
 <path d="m26.61928,40.0589a.39318,.40675 0 1,0 -.78635,0 .39318,.40675 0 1,0 .78635,0" fill="#666"/>
 <path d="m29.55568,50.111a.39318,.40675 0 1,0 -.78635,0 .39318,.40675 0 1,0 .78635,0" fill="#4d4d4d"/>
 <path d="m21.03728,46.25a.39318,.40675 0 1,0 -.78635,0 .39318,.40675 0 1,0 .78635,0" fill="#4d4d4d"/>
 <path d="m13.16164,42.1935a.24834,.25691 0 1,0 -.49667,0 .24834,.25691 0 1,0 .49667,0" fill="#333"/>
 <path d="m18.33661,36.3689a.30271,.36136 0 1,0 -.60542,0 .30271,.36136 0 1,0 .60542,0" fill="#666"/>
 <path d="m19.612 27.488c2.7308 1.1548 3.1042 1.5284-0.08886 0.20857s-3.6232-1.7573 0.08886-0.20857z" fill="#666"/>
 <path d="m11.208 24.081c2.7308 1.1548 3.1042 1.5283-0.08886 0.20857s-3.6232-1.7573 0.08886-0.20857z" fill="#666"/>
 <path d="m3.76327,20.8156c2.24201.94817 2.54852,1.2548-.07293.17121s-2.97464-1.44272.07293-.17121z" fill="#666"/>
 <path d="m16.4977,10.0705 6.22888-3.94828c.2668-.16919.63727-.14496.87692.06631l6.16066,5.43599c.23965.21138.21171.56906-.04712.74891l-6.13766,4.26635c-.25827.1794-.6421.14989-.87692-.06631l-6.25188-5.75407c-.23494-.21642-.21979-.57971.04712-.7489z" fill="#ffff25"/>
 <path d="m25.1253,4.49389 5.73634-3.78447c.24672-.1628.59688-.13598.82049.06204l5.94514,5.26703c.22361.19803.20072.53708-.04409.70066l-5.83283,3.90048c-.24414.16336-.60081.14013-.82037-.06204l-5.84876-5.38304c-.21979-.20241-.20263-.53787.04409-.70067z" fill="#2a4bb7"/>
 <path d="m33.8014,12.2614 5.64546-3.8298c.24459-.16605.59565-.13452.82037.06204l6.17233,5.40346c.22473.19657.19511.529-.04409.70066l-5.56031,3.99125c-.23853.1711-.59744.13609-.82037-.06216l-6.25738-5.56479c-.22316-.19836-.20061-.53461.04398-.70066z" fill="#f03031"/>
 <path d="m42.296,20.0741 5.64546-4.19331c.23752-.17637.60025-.13879.82049.06204l6.67172,6.08527c.22035.20083.1904.52418-.04409.70066l-5.42399,4.0819c-.23393.17604-.59531.13306-.82037-.06204l-6.8933-5.97386c-.22506-.19511-.19343-.52418.04409-.70066z" fill="#2ac44b"/>
 <path d="m25.0347,18.1212 6.1904-4.4204c.24066-.17177.5961-.13441.82049.06204l6.58117,5.76686c.22428.19645.18782.5207-.04409.70066l-4.56109,3.53697c-.23101.17918-.65029.18209-.82037-.06204-.53787-.77191-1.03601-1.24829-1.74992-1.49837l-4.89016-1.71356-1.57052-1.67149c-.20408-.21732-.19657-.52889.04409-.70066z" fill="#2a4bb7"/>
 <path d="m33.7882,26.4178 6.22888-4.62964c.25356-.18849.63637-.14339.87703.06631l6.75115,5.89039c.24066.20981.19982.55391-.04712.74891l-6.09234,4.8114c-.24616.19432-.63783.14462-.87692-.06642l-6.88769-6.07203c-.23954-.21126-.20644-.56053.04701-.74891z" fill="#ffff25"/>
 <path d="m48.007,30.381-2.12712,4.73107c-.07237.16111-.13912.29934-.30169.43128l-5.63851,4.57399c-.16268.13205-.47526.05251-.42847-.10838l1.16134-4.0018c.04656-.16033.13856-.30024.30169-.43128l6.60429-5.30327c.16347-.13116.50084-.05273.42847.10838z" fill="#284299"/>
 <path d="m55.8655,24.3394-2.39953,4.77651c-.08056.16022-.1371.30091-.30181.43139l-5.32077,4.21037c-.16481.13048-.49849.05161-.42847-.10838l2.0699-4.72837c.0699-.15943.13351-.30461.30169-.43128l5.65051-4.25861c.16863-.12701.50892-.05195.42847.10838z" fill="#b3b3b3"/>
 <path d="m52.6403,31.0624-2.39987,4.91282c-.07843.16044-.12947.30685-.30181.43128l-4.63907,3.34747c-.17233.12454-.49759.05183-.42836-.10838l1.70638-3.95636c.069-.15977.13912-.30001.30181-.43128l5.33244-4.30383c.1628-.13149.50679-.05217.42847.10827z" fill="#b3b3b3"/>
 <path d="m45.2816,36.9221-2.08157,4.2769c-.0782.16055-.14911.29283-.30181.43128l-4.44306,3.55728c-.15281.13856-.47246.05206-.42847-.10827l.965-3.34859c.04611-.15977.13935-.30035.30181-.43128l5.55963-4.4857c.16302-.13138.50668-.05217.42847.10838z" fill="#1d8a35"/>
 <path d="m49.3717,37.712-1.92954,3.77202c-.06889.13464-.11018.25727-.25401.36307l-4.26837,3.13587c-.14383.10569-.42107.04331-.3606-.09121l1.6182-3.60283c.06025-.13419.10939-.25883.25401-.36307l4.5796-3.30506c.14473-.10434.4296-.04353.36071.09122z" fill="#b34322"/>
 <path d="m42.5146,42.8856-1.28161,3.34265c-.04106.10692-.09245.19758-.19948.28509l-2.57467,2.03242c-.10692.08751-.264.02592-.28329-.07158l-.40379-2.04544c-.01919-.09716.04241-.14821.14911-.23494l4.31045-3.37978c.10872-.08527.33087-.03489.28329.07158z" fill="#b3b31a"/>
 <path d="m39.572 38.42c-0.73196 2.5319-1.0416 2.9058-0.21542-0.05071s1.19-3.3882 0.21542 0.05071z" fill="#666"/>
 <path d="m27.264,38.6313 6.44497-4.75519c.25423-.18759.43756-.48379.37316-.79636l-1.66745-7.93852c-.0653-.31213-.38416-.44631-.67542-.32705l-6.85695,4.9043c-.25446.18209-.43947.48446-.37316.79636l2.07943,7.78941c.08101.30831.42129.51475.67542.32705z" fill="#ffff25"/>
 <path d="m30.0561,48.8791 6.1242-4.53742c.2539-.18804.43756-.48379.37316-.79636l-1.76562-7.40716c-.07371-.30988-.38427-.4462-.67542-.32705l-6.28621,4.47908c-.2539.18097-.43936.48446-.37316.79636l1.92752,7.46561c.07966.30798.42129.51475.67553.32694z" fill="#2ac44b"/>
 <path d="m32.628,58.4922 5.79165-4.56681c.22215-.17514.38999-.43655.33255-.71861l-1.6973-7.20476c-.05374-.28251-.34253-.40267-.60204-.29507l-6.06406,4.50421c-.22406.16639-.39156.43711-.33255.71861l1.96982,7.26736c.07517.27679.37989.47021.60193.29507z" fill="#ffff25"/>
 <path d="m30.9524,23.2446-6.93975,4.88534c-.22967.16179-.6007.21474-.89644.11208l-6.41625-2.73656c-.28172-.12016-.34433-.3496-.14754-.5299l6.52014-4.60047c.22753-.16044.60182-.21575.89644-.11208l6.83597,2.4517c.29328.10535.37709.36823.14743.5299z" fill="#2a4bb7"/>
 <path d="m21.875,19.8455-6.55032,4.56109c-.21676.15102-.56693.20038-.84618.10468l-6.0561-2.55503c-.2659-.1122-.32503-.32638-.13912-.49478l6.15405-4.29508c.21474-.14989.56816-.2015.84618-.10468l6.45226,2.28902c.27679.09828.356.34365.13924.49478z" fill="#f03031"/>
 <path d="m13.2373,16.6851-6.18299,4.22619c-.19926.13621-.51633.18243-.77056.09525l-4.78806-1.9632c-.24391-.09985-.29597-.2972-.12678-.45046l6.2585-4.05666c.20229-.13116.51733-.18344.77045-.09537l4.71267,1.79378c.24773.09436.32604.31426.12678.45047z" fill="#ffff25"/>
 <path d="m16.4346,27.3759 5.95737,2.48053c.22652.09436.44452.38954.51543.70358l1.90003,7.63682c.07809.31348-.08112.50062-.30495.43745l-5.74442-2.76529c-.22349-.1076-.44587-.38988-.51531-.70347l-2.11309-7.35207c-.08953-.31168.07831-.53731.30495-.43756z" fill="#ccc"/>
 <path d="m19.8334,38.1659 5.35678,2.57702c.22641.10894.44452.38954.51531.70358l1.94547,7.11646c.08561.31314-.08101.50073-.30484.43756l-5.55896-2.69135c-.22383-.10838-.44587-.38988-.51531-.70347l-1.74341-7.00224c-.07786-.31291.07842-.53731.30495-.43756z" fill="#c02627"/>
 <path d="m22.3211,47.8096 5.63065,2.75698c.20464.10019.40177.35196.46584.63581l1.79939,7.02356c.07259.28296-.07326.45249-.27555.39549l-5.70235-3.48424c-.19982-.12218-.40301-.35229-.46584-.63581l-1.7277-6.29642c-.0773-.28184.0708-.48558.27555-.39538z" fill="#2a4bb7"/>
 <path d="m8.48098,24.0392 5.42679,2.3257c.20274.08684.39785.34859.46124.62964l2.08931,7.29003c.08022.27993-.07259.448-.27286.39156l-5.44833-2.63716c-.19971-.09682-.39897-.34882-.46112-.62953l-2.06788-6.97868c-.08258-.27892.07012-.48087.27286-.39156z" fill="#2a4bb7"/>
 <path d="m1.0911,20.8916 5.05228,2.13879c.18501.07831.36295.31808.42085.57455l2.07719,7.10143c.07461.25513-.0662.40895-.24907.35734l-4.96937-2.47055c-.18198-.09043-.36419-.3183-.42085-.57444l-2.15999-6.76989c-.08078-.25345.06395-.43868.24896-.35723z" fill="#229d3c"/>
 <path d="m11.5011,34.1354 5.43094,2.67968c.21385.10546.41961.36767.48648.66409l1.86413,6.782c.08134.29541-.07652.47257-.28778.41299l-5.44968-2.73645c-.21104-.10614-.42085-.368-.48648-.66409l-1.84551-6.72523c-.08078-.29463.07394-.50712.28789-.41299z" fill="#c02627"/>
 <path d="m4.31864,30.6152 4.759,2.31101c.21373.10378.41961.36767.48648.66409l1.83978,6.66532c.08168.29541-.07652.47257-.28778.41299l-4.55212-2.33412c-.21048-.10804-.42096-.36811-.48659-.6642l-2.04667-6.6421c-.09032-.29328.07405-.50724.28789-.41299z" fill="#2a4bb7"/>
 <path d="m14.3456,43.8843 5.35061,2.60417c.20812.10131.4085.35802.47369.64658l1.88455,6.5198c.08302.28722-.0745.46011-.28026.40211l-5.6164-3.39369c-.20375-.12319-.40985-.35824-.47369-.64658l-1.61876-5.73028c-.08089-.28644.07203-.49377.28026-.40211z" fill="#ccc"/>
 <path d="m7.31426,40.3342 4.47605,2.17783c.21373.10401.41961.36767.48648.66409l1.55694,5.56693c.08258.29507-.07652.47257-.28778.41299l-4.21946-2.517c-.20891-.12476-.42085-.368-.48648-.6642l-1.81364-5.22765c-.10086-.29092.07405-.50724.28789-.41299z" fill="#ffff25"/>
 <path d="m27.718 26.8c-2.7564 1.8667-3.3365 1.9901-0.14215-0.21115s3.8692-2.3392 0.14215 0.21115z" fill="#666"/>
</svg>
